<svg xmlns="http://www.w3.org/2000/svg" width="251" height="164" fill="none" viewBox="0 0 251 164">
    <path fill="#009AFF" d="M56.5 101.7h122.7l6.8-20H63.3l-6.8 20Z" />
    <path
        fill="#009AFF"
        d="M199.4 0H92.5C70.6 0 51.1 13.9 44.1 34.6L42 40.8l-6.8 19.9-21.1 61.8-6.8 19.9L0 163.9h21.1l7.3-21.4 6.8-19.9 21.1-61.8L63 41.1v-.2c3.4-9.7 11.3-17 20.9-19.7 2.7-.8 5.6-1.2 8.6-1.2h106.9c2.5 0 5 .3 7.3.9 4.3 1 8.2 3 11.5 5.6 7.3 5.6 12 14.5 12 24.4 0 17-13.9 30.9-30.9 30.9l-6.8 19.9h6.8c28 0 50.8-22.8 50.8-50.8 0-28-22.6-50.9-50.7-50.9Z"
    />
    <path fill="#009AFF" d="M199.9 40.9H77.3l-6.8 19.9h122.6l6.8-19.9ZM42.5 142.5h122.7l6.8-19.9H49.3l-6.8 19.9Z" />
</svg>
